<?xml version="1.0" encoding="utf-8"?>
<!-- Generator: Adobe Illustrator 20.0.0, SVG Export Plug-In . SVG Version: 6.00 Build 0)  -->
<svg version="1.1" xmlns="http://www.w3.org/2000/svg" xmlns:xlink="http://www.w3.org/1999/xlink" x="0px" y="0px"
	 viewBox="0 0 240 240" style="enable-background:new 0 0 240 240;" xml:space="preserve">
<style type="text/css">
	.st0{fill:none;stroke:#808080;stroke-width:0.25;stroke-miterlimit:10;}
</style>
<g id="Guides">
</g>
<g id="Area">
	<g>
		<polygon class="st0" points="-102.7,-59.3 0,-118.5 102.7,-59.3 102.7,59.3 0,118.5 -102.7,59.3 		"/>
		<polygon class="st0" points="1.8,-3.1 3.6,0 1.8,3.1 -1.8,3.1 -3.6,0 -1.8,-3.1 		"/>
	</g>
	<g>
		<polygon class="st0" points="-102.7,-59.3 0,-118.5 102.7,-59.3 102.7,59.3 0,118.5 -102.7,59.3 		"/>
		<polygon class="st0" points="1.8,-3.1 3.6,0 1.8,3.1 -1.8,3.1 -3.6,0 -1.8,-3.1 		"/>
	</g>
</g>
<g id="Components">
	<g id="arm">
		<polygon id="shape1" class="st0" points="0,-12 1,-6 0,0 -1,-6 		"/>
		<polygon id="shape2" class="st0" points="1.5,-3.6 5,-5 1.5,-6.4 0,-11 -1.5,-6.4 -5,-5 -1.5,-3.6 0,1 		"/>
		<polygon id="shape3" class="st0" points="3.2,-10.5 6.3,-5 3.2,0.5 -3.2,0.5 -6.3,-5 -3.2,-10.5 		"/>
		<polygon id="shape4" class="st0" points="3.1,-3.6 10,-5 3.1,-6.4 0,-11 -3.1,-6.4 -10,-5 -3.1,-3.6 0,1 		"/>
		<polygon id="shape5" class="st0" points="-5.5,-8.2 0,-11.4 5.5,-8.2 5.5,-1.8 0,1.4 -5.5,-1.8 		"/>
		<polygon id="shape6" class="st0" points="2.9,-1.9 13,-5 2.9,-8.1 0,-11 -2.9,-8.1 -13,-5 -2.9,-1.9 0,1 		"/>
		<polygon id="shape7" class="st0" points="19,-5 11,-10 5.7,-6.7 0,-11 -5.7,-6.7 -11,-10 -19,-5 -11,0 -5.7,-3.3 0,1 5.7,-3.3 
			11,0 		"/>
		<polygon id="shape8" class="st0" points="17,-5 13.4,-6.2 11,-11 8.6,-6.3 0,-11 -8.6,-6.3 -11,-11 -13.4,-6.2 -17,-5 -13.4,-3.8 
			-11,1 -8.6,-3.7 0,1 8.6,-3.7 11,1 13.4,-3.8 		"/>
		<polygon id="shape9" class="st0" points="33,-5 22,-11 13.4,-6.3 7.5,-11.3 -7.5,-11.3 -13.4,-6.3 -22,-11 -33,-5 -22,1 
			-13.4,-3.7 -7.5,1.3 7.5,1.3 13.4,-3.7 22,1 		"/>
		<polygon id="shape10" class="st0" points="18.6,-10.5 12.2,-10.5 10.1,-6.9 2.9,-9.9 5.5,-11.4 5.5,-17.8 0,-21 -5.5,-17.8 
			-5.5,-11.4 -2.9,-9.9 -10.3,-6.9 -12.4,-10.5 -18.8,-10.5 -22,-5 -18.8,0.5 -12.4,0.5 -10.3,-3.1 0,1 10.1,-3.1 12.2,0.5 
			18.6,0.5 21.8,-5 		"/>
	</g>
</g>
</svg>
