<?xml version="1.0" encoding="utf-8"?>
<!-- Generator: Adobe Illustrator 20.0.0, SVG Export Plug-In . SVG Version: 6.00 Build 0)  -->
<svg version="1.1" xmlns="http://www.w3.org/2000/svg" xmlns:xlink="http://www.w3.org/1999/xlink" x="0px" y="0px"
	 viewBox="0 0 240 240" style="enable-background:new 0 0 240 240;" xml:space="preserve">
<style type="text/css">
	.st0{fill:none;stroke:#808080;stroke-width:0.25;stroke-miterlimit:10;}
</style>
<g id="Guides">
</g>
<g id="Area">
	<g>
		<polygon class="st0" points="17.3,60.7 120,1.5 222.7,60.7 222.7,179.3 120,238.5 17.3,179.3 		"/>
		<polygon class="st0" points="121.8,116.9 123.6,120 121.8,123.1 118.2,123.1 116.4,120 118.2,116.9 		"/>
	</g>
	<g>
		<polygon class="st0" points="17.3,60.7 120,1.5 222.7,60.7 222.7,179.3 120,238.5 17.3,179.3 		"/>
		<polygon class="st0" points="121.8,116.9 123.6,120 121.8,123.1 118.2,123.1 116.4,120 118.2,116.9 		"/>
	</g>
</g>
<g id="Components">
	<g>
		<polygon id="shape1" class="st0" points="120,108 121,114 120,120 119,114 		"/>
		<polygon id="shape2" class="st0" points="121.5,106.4 125,105 121.5,103.6 120,99 118.5,103.6 115,105 118.5,106.4 120,111 		"/>
		<polygon id="shape3" class="st0" points="123.2,89.5 126.3,95 123.2,100.5 116.8,100.5 113.7,95 116.8,89.5 		"/>
		<polygon id="shape4" class="st0" points="123.1,86.4 130,85 123.1,83.6 120,79 116.9,83.6 110,85 116.9,86.4 120,91 		"/>
		<polygon id="shape5" class="st0" points="114.5,71.8 120,68.6 125.5,71.8 125.5,78.2 120,81.4 114.5,78.2 		"/>
		<polygon id="shape6" class="st0" points="122.9,68.1 133,65 122.9,61.9 120,59 117.1,61.9 107,65 117.1,68.1 120,71 		"/>
		<polygon id="shape7" class="st0" points="139,55 131,50 125.7,53.3 120,49 114.3,53.3 109,50 101,55 109,60 114.3,56.7 120,61 
			125.7,56.7 131,60 		"/>
		<polygon id="shape8" class="st0" points="137,45 133.4,43.8 131,39 128.6,43.7 120,39 111.4,43.7 109,39 106.6,43.8 103,45 
			106.6,46.2 109,51 111.4,46.3 120,51 128.6,46.3 131,51 133.4,46.2 		"/>
		<polygon id="shape9" class="st0" points="153,35 142,29 133.4,33.7 127.5,28.7 112.5,28.7 106.6,33.7 98,29 87,35 98,41 
			106.6,36.3 112.5,41.3 127.5,41.3 133.4,36.3 142,41 		"/>
		<polygon id="shape10" class="st0" points="138.6,19.5 132.2,19.5 130.1,23.1 122.9,20.1 125.5,18.6 125.5,12.2 120,9 114.5,12.2 
			114.5,18.6 117.1,20.1 109.7,23.1 107.6,19.5 101.2,19.5 98,25 101.2,30.5 107.6,30.5 109.7,26.9 120,31 130.1,26.9 132.2,30.5 
			138.6,30.5 141.8,25 		"/>
	</g>
</g>
</svg>
